HIERARCHY
ROOT hip
{
  OFFSET 0 0 0
  CHANNELS 6 Xposition Yposition Zposition Zrotation Yrotation Xrotation
  JOINT abdomen
  {
    OFFSET 0 20.6881 -0.73152
    CHANNELS 3 Zrotation Xrotation Yrotation
    JOINT chest
    {
      OFFSET 0 11.7043 -0.48768
      CHANNELS 3 Zrotation Xrotation Yrotation
      JOINT neck
      {
        OFFSET 0 22.1894 -2.19456
        CHANNELS 3 Zrotation Xrotation Yrotation
        JOINT head
        {
          OFFSET -0.24384 7.07133 1.2192
          CHANNELS 3 Zrotation Xrotation Yrotation
          JOINT leftEye
          {
            OFFSET 4.14528 8.04674 8.04672
            CHANNELS 3 Zrotation Xrotation Yrotation
            End Site
            {
              OFFSET 1 0 0
            }
          }
          JOINT rightEye
          {
            OFFSET -3.6576 8.04674 8.04672
            CHANNELS 3 Zrotation Xrotation Yrotation
            End Site
            {
              OFFSET 1 0 0
            }
          }
        }
      }
      JOINT rCollar
      {
        OFFSET -2.68224 19.2634 -4.8768
        CHANNELS 3 Zrotation Xrotation Yrotation
        JOINT rShldr
        {
          OFFSET -8.77824 -1.95073 1.46304
          CHANNELS 3 Zrotation Xrotation Yrotation
          JOINT rForeArm
          {
            OFFSET -28.1742 -1.7115 0.48768
            CHANNELS 3 Zrotation Xrotation Yrotation
            JOINT rHand
            {
              OFFSET -22.5879 0.773209 7.07136
              CHANNELS 3 Zrotation Xrotation Yrotation
              JOINT rThumb1
              {
                OFFSET -1.2192 -0.487915 3.41376
                CHANNELS 3 Zrotation Xrotation Yrotation
                JOINT rThumb2
                {
                  OFFSET -3.37035 -0.52449 3.41376
                  CHANNELS 3 Zrotation Xrotation Yrotation
                  End Site
                  {
                    OFFSET -1.78271 -1.18214 1.43049
                  }
                }
              }
              JOINT rIndex1
              {
                OFFSET -7.75947 0.938293 5.60832
                CHANNELS 3 Zrotation Xrotation Yrotation
                JOINT rIndex2
                {
                  OFFSET -2.54057 -0.884171 1.56538
                  CHANNELS 3 Zrotation Xrotation Yrotation
                  End Site
                  {
                    OFFSET -1.62519 -0.234802 1.16502
                  }
                }
              }
              JOINT rMid1
              {
                OFFSET -8.24714 1.18213 3.41376
                CHANNELS 3 Zrotation Xrotation Yrotation
                JOINT rMid2
                {
                  OFFSET -3.10165 -0.590103 1.0647
                  CHANNELS 3 Zrotation Xrotation Yrotation
                  End Site
                  {
                    OFFSET -2.48547 -0.328903 0.83742
                  }
                }
              }
              JOINT rRing1
              {
                OFFSET -8.82822 0.546677 1.51678
                CHANNELS 3 Zrotation Xrotation Yrotation
                JOINT rRing2
                {
                  OFFSET -2.60934 -0.819778 -0.0198488
                  CHANNELS 3 Zrotation Xrotation Yrotation
                  End Site
                  {
                    OFFSET -2.33842 -0.294052 0.168128
                  }
                }
              }
              JOINT rPinky1
              {
                OFFSET -8.27202 -0.0477905 -0.4584
                CHANNELS 3 Zrotation Xrotation Yrotation
                JOINT rPinky2
                {
                  OFFSET -1.82734 -0.647385 -0.700984
                  CHANNELS 3 Zrotation Xrotation Yrotation
                  End Site
                  {
                    OFFSET -1.69225 -0.51767 -0.607171
                  }
                }
              }
            }
          }
        }
      }
      JOINT lCollar
      {
        OFFSET 2.68224 19.2634 -4.8768
        CHANNELS 3 Zrotation Xrotation Yrotation
        JOINT lShldr
        {
          OFFSET 8.77824 -1.95073 1.46304
          CHANNELS 3 Zrotation Xrotation Yrotation
          JOINT lForeArm
          {
            OFFSET 28.1742 -1.7115 0.48768
            CHANNELS 3 Zrotation Xrotation Yrotation
            JOINT lHand
            {
              OFFSET 22.5879 0.773209 7.07136
              CHANNELS 3 Zrotation Xrotation Yrotation
              JOINT lThumb1
              {
                OFFSET 1.2192 -0.487915 3.41376
                CHANNELS 3 Zrotation Xrotation Yrotation
                JOINT lThumb2
                {
                  OFFSET 3.37035 -0.52449 3.41376
                  CHANNELS 3 Zrotation Xrotation Yrotation
                  End Site
                  {
                    OFFSET 1.78271 -1.18214 1.43049
                  }
                }
              }
              JOINT lIndex1
              {
                OFFSET 7.75947 0.938293 5.60832
                CHANNELS 3 Zrotation Xrotation Yrotation
                JOINT lIndex2
                {
                  OFFSET 2.54057 -0.884171 1.56538
                  CHANNELS 3 Zrotation Xrotation Yrotation
                  End Site
                  {
                    OFFSET 1.62519 -0.234802 1.16502
                  }
                }
              }
              JOINT lMid1
              {
                OFFSET 8.24714 1.18213 3.41376
                CHANNELS 3 Zrotation Xrotation Yrotation
                JOINT lMid2
                {
                  OFFSET 3.10165 -0.590103 1.0647
                  CHANNELS 3 Zrotation Xrotation Yrotation
                  End Site
                  {
                    OFFSET 2.48547 -0.328903 0.83742
                  }
                }
              }
              JOINT lRing1
              {
                OFFSET 8.82822 0.546677 1.51678
                CHANNELS 3 Zrotation Xrotation Yrotation
                JOINT lRing2
                {
                  OFFSET 2.60934 -0.819778 -0.0198488
                  CHANNELS 3 Zrotation Xrotation Yrotation
                  End Site
                  {
                    OFFSET 2.33842 -0.294052 0.168128
                  }
                }
              }
              JOINT lPinky1
              {
                OFFSET 8.27202 -0.0477905 -0.4584
                CHANNELS 3 Zrotation Xrotation Yrotation
                JOINT lPinky2
                {
                  OFFSET 1.82734 -0.647385 -0.700984
                  CHANNELS 3 Zrotation Xrotation Yrotation
                  End Site
                  {
                    OFFSET 1.69225 -0.51767 -0.607171
                  }
                }
              }
            }
          }
        }
      }
    }
  }
  JOINT rButtock
  {
    OFFSET -8.77824 4.35084 1.2192
    CHANNELS 3 Zrotation Xrotation Yrotation
    JOINT rThigh
    {
      OFFSET 0 -1.70687 -2.19456
      CHANNELS 3 Zrotation Xrotation Yrotation
      JOINT rShin
      {
        OFFSET 0 -36.8199 0.73152
        CHANNELS 3 Zrotation Xrotation Yrotation
        JOINT rFoot
        {
          OFFSET 0.73152 -45.1104 -5.12064
          CHANNELS 3 Zrotation Xrotation Yrotation
          End Site
          {
            OFFSET -1.1221 -3.69964 12.103
          }
        }
      }
    }
  }
  JOINT lButtock
  {
    OFFSET 8.77824 4.35084 1.2192
    CHANNELS 3 Zrotation Xrotation Yrotation
    JOINT lThigh
    {
      OFFSET 0 -1.70687 -2.19456
      CHANNELS 3 Zrotation Xrotation Yrotation
      JOINT lShin
      {
        OFFSET 0 -36.8199 0.73152
        CHANNELS 3 Zrotation Xrotation Yrotation
        JOINT lFoot
        {
          OFFSET -0.73152 -45.1104 -5.12064
          CHANNELS 3 Zrotation Xrotation Yrotation
          End Site
          {
            OFFSET 1.1221 -3.69964 12.103
          }
        }
      }
    }
  }
}
MOTION
Frames:	4
Frame Time:	0.00833333
49.4795 52.8608 -6.3683 41.8378 -87.6342 -16.9952 10.475 65.4093 -15.5059 -0.124533 -7.37001 -3.68803 -7.6364 19.478 -10.7733 25.9204 -38.6122 -13.5173 -0.0 0.0 0.0 -0.0 0.0 0.0 -3.15065e-14 5.72334e-13 -6.72335e-15 85.9406 30.1672 -3.80966 -23.639 -18.4491 48.4378 -0.191384 -12.3457 -1.76286 3.46624e-10 -1.00172e-09 1.65416e-09 5.84462e-10 -1.73074e-09 2.85886e-09 3.4663e-10 -1.00171e-09 1.65415e-09 7.73091 5.47488 0.417314 3.46625e-10 -1.00172e-09 1.65415e-09 2.90554 0.965183 0.102902 3.46635e-10 -1.00172e-09 1.65416e-09 10.2786 0.731801 0.0259123 3.46624e-10 -1.00171e-09 1.65416e-09 2.22167 -0.733487 -0.20892 -3.1499e-14 5.72336e-13 -7.04016e-15 -64.6484 3.86758 -7.96302 24.9048 -48.1142 -100.274 0.241056 -14.3342 2.05362 -3.92498e-10 4.64004e-10 -5.78709e-11 -6.79899e-10 8.0349e-10 -1.02141e-10 -3.92507e-10 4.64e-10 -5.78665e-11 -7.73091 5.47488 -0.417314 -3.92502e-10 4.63996e-10 -5.78679e-11 -2.90554 0.965183 -0.102902 -3.9251e-10 4.64e-10 -5.78708e-11 -10.2786 0.731801 -0.0259123 -3.92491e-10 4.63999e-10 -5.78714e-11 -2.22167 -0.733487 0.20892 -2.03217e-16 0.0 -3.88251e-19 -97.8661 -46.0242 -109.919 -177.362 64.1985 -178.983 -0.705499 15.2303 17.7858 2.03217e-16 0.0 3.88251e-19 110.796 -62.2316 105.291 173.753 78.7417 -174.615 -5.05492 -3.93522 -21.2264
48.7461 52.8583 -9.30397 6.5413 -87.0996 17.9614 13.0921 65.5751 -17.0592 -0.166816 -7.62039 -3.6425 -7.77462 19.4465 -10.8294 26.4203 -38.4565 -13.5064 -0.0 0.0 0.0 -0.0 0.0 0.0 -1.02637e-13 8.79987e-13 6.35707e-14 85.0205 29.9584 -2.46632 -23.0394 -17.4184 46.6184 -0.195236 -12.4576 -1.77943 1.26177e-09 9.39814e-10 1.03103e-10 2.18542e-09 1.61589e-09 1.89901e-10 1.26177e-09 9.39815e-10 1.03095e-10 7.73091 5.47488 0.417314 1.26177e-09 9.39815e-10 1.03096e-10 2.90554 0.965183 0.102902 1.26178e-09 9.39815e-10 1.03101e-10 10.2786 0.731801 0.0259123 1.26177e-09 9.39816e-10 1.03106e-10 2.22167 -0.733487 -0.20892 -1.02686e-13 8.79985e-13 6.32539e-14 -63.7621 6.38952 -8.40665 24.5412 -48.657 -101.523 0.134209 -11.2032 1.58911 1.29938e-10 2.14617e-10 -2.46084e-11 2.34127e-10 3.72889e-10 -5.08555e-11 1.29924e-10 2.14611e-10 -2.45988e-11 -7.73091 5.47488 -0.417314 1.29935e-10 2.14612e-10 -2.46052e-11 -2.90554 0.965183 -0.102902 1.29926e-10 2.14615e-10 -2.46105e-11 -10.2786 0.731801 -0.0259123 1.29945e-10 2.14615e-10 -2.46159e-11 -2.22167 -0.733487 0.20892 -2.03217e-16 0.0 -3.88251e-19 -95.9935 -46.0913 -107.985 -177.371 63.6261 -179.047 -0.393607 15.1816 14.5752 2.03217e-16 0.0 3.88251e-19 112.121 -62.0512 108.782 174.009 78.0729 -174.836 -4.96743 -1.23181 -26.9367
47.9605 53.0044 -12.2365 -10.1988 -86.1714 34.0575 15.3811 65.7443 -18.4198 -0.152049 -7.87019 -3.59453 -8.01646 19.3941 -10.886 26.9517 -38.3785 -13.4785 -0.0 0.0 0.0 -0.0 0.0 0.0 -1.67259e-13 1.11901e-12 1.35947e-13 83.9566 29.6955 -1.06937 -22.3921 -16.3685 44.8008 -0.193745 -12.4185 -1.77361 2.05147e-09 2.83698e-09 -1.62137e-09 3.57024e-09 4.88631e-09 -2.77953e-09 2.05147e-09 2.83698e-09 -1.62138e-09 7.73091 5.47488 0.417314 2.05147e-09 2.83698e-09 -1.62137e-09 2.90554 0.965183 0.102902 2.05147e-09 2.83698e-09 -1.62137e-09 10.2786 0.731801 0.0259123 2.05146e-09 2.83698e-09 -1.62136e-09 2.22167 -0.733487 -0.20892 -1.67362e-13 1.11901e-12 1.3564e-13 -62.9025 8.82611 -8.98148 24.2168 -49.1186 -102.594 0.0642144 -7.85478 1.10727 6.60399e-10 -8.5602e-11 -5.50221e-12 1.1613e-09 -1.45992e-10 -2.32852e-11 6.6038e-10 -8.56081e-11 -5.48681e-12 -7.73091 5.47488 -0.417314 6.60398e-10 -8.56021e-11 -5.49887e-12 -2.90554 0.965183 -0.102902 6.60388e-10 -8.56007e-11 -5.50657e-12 -10.2786 0.731801 -0.0259123 6.60406e-10 -8.55993e-11 -5.51707e-12 -2.22167 -0.733487 0.20892 -2.03217e-16 0.0 -3.88251e-19 -94.3605 -46.2796 -105.889 -177.36 63.4748 -179.163 0.113161 14.5138 10.669 2.03217e-16 0.0 3.88251e-19 112.629 -62.0989 111.245 174.037 77.9049 -174.837 -4.51666 0.901926 -32.0365
47.3411 53.0465 -14.9523 -16.504 -85.3385 40.1772 16.682 65.8021 -18.96 0.0360477 -8.02572 -3.50189 -8.227 19.3395 -10.9724 27.3085 -38.5251 -13.531 -0.0 0.0 0.0 -0.0 0.0 0.0 -1.93932e-13 1.25483e-12 1.60767e-13 82.7391 29.1979 0.325469 -21.7426 -15.3755 43.0993 -0.186419 -12.2102 -1.74276 2.2622e-09 3.54541e-09 -2.56093e-09 3.94404e-09 6.10733e-09 -4.39923e-09 2.26221e-09 3.54541e-09 -2.56094e-09 7.73091 5.47488 0.417314 2.2622e-09 3.54541e-09 -2.56094e-09 2.90554 0.965183 0.102902 2.26221e-09 3.54541e-09 -2.56093e-09 10.2786 0.731801 0.0259123 2.2622e-09 3.54541e-09 -2.56092e-09 2.22167 -0.733487 -0.20892 -1.94059e-13 1.25482e-12 1.60469e-13 -62.1975 11.147 -9.73911 23.9432 -49.4695 -103.464 0.0278116 -4.75506 0.669834 8.95558e-10 -2.80213e-10 -6.16964e-11 1.57147e-09 -4.82894e-10 -1.22016e-10 8.95538e-10 -2.80219e-10 -6.16773e-11 -7.73091 5.47488 -0.417314 8.95559e-10 -2.8021e-10 -6.16932e-11 -2.90554 0.965183 -0.102902 8.95549e-10 -2.8021e-10 -6.1702e-11 -10.2786 0.731801 -0.0259123 8.95564e-10 -2.80208e-10 -6.17155e-11 -2.22167 -0.733487 0.20892 -2.03217e-16 0.0 -3.88251e-19 -93.5375 -46.7289 -104.034 -177.319 63.9803 -179.286 0.53198 13.6808 7.32541 2.03217e-16 0.0 3.88251e-19 112.183 -62.2358 112.287 173.89 78.1964 -174.64 -4.58652 1.28208 -34.6651
